<?xml version="1.0" encoding="utf-8"?>
<!-- Svg Vector Icons : http://www.onlinewebfonts.com/icon -->
<!DOCTYPE svg PUBLIC "-//W3C//DTD SVG 1.1//EN" "http://www.w3.org/Graphics/SVG/1.1/DTD/svg11.dtd">
<svg version="1.1" xmlns="http://www.w3.org/2000/svg" xmlns:xlink="http://www.w3.org/1999/xlink" x="0px" y="0px" viewBox="0 0 256 256" enable-background="new 0 0 256 256" xml:space="preserve">
<metadata> Svg Vector Icons : http://www.onlinewebfonts.com/icon </metadata>
<g><g><path fill="#000000" d="M245.9,154.1c0,0.9-0.3,1.9-0.6,2.8c-0.1,0.5-0.2,1-0.5,1.5c-0.1,0.3-0.1,0.6-0.3,1c-0.5,0.8-1.2,1.4-1.8,2.1c0,0-0.1,0.1-0.1,0.1c-2.6,2.8-6.2,4-9.8,3.2h-38.7c0,0.7,0.2,1.3,0.2,2v64.3c0,17.4-13.2,14.7-29.5,14.7h-59c-16.3,0-29.5,2.6-29.5-14.7v-64.3c0-0.7,0.1-1.3,0.2-2H69v81.1c-8.8-5.1-14.7-3.9-14.7-14.7v-58.9c0-2.6,0.4-5,1-7.4H23.1c-3.6,0.8-7.2-0.5-9.8-3.2c0,0,0-0.1-0.1-0.1c-0.6-0.7-1.3-1.3-1.8-2.1c-0.2-0.3-0.2-0.7-0.3-1c-0.2-0.5-0.3-1-0.5-1.5c-0.3-0.9-0.5-1.9-0.6-2.8c0-0.1-0.1-0.2-0.1-0.4c0-0.3,0.1-0.5,0.1-0.8c0.2-3.8,2-7.4,5.3-9.4L113,81.6V68.7h13.5v0.3c8.5-2.6,14.7-10.9,14.7-20.6c0-11.9-9.2-21.5-20.6-21.5c-9.9,0-18.2,7.3-20.2,17.1h0.2v3.2c0,4.7-3.8,8.5-8.5,8.5s-8.5-3.8-8.5-8.5v-3.2h0.3c2.1-19.1,17.7-34,36.6-34c20.4,0,36.9,17.2,36.9,38.4c0,13.3-6.6,24.9-16.5,31.8l99.5,63.2c3.3,2,5.1,5.6,5.3,9.4c0,0.3,0.2,0.5,0.2,0.8C246,153.9,245.9,154,245.9,154.1L245.9,154.1z M128,99.1l-68.6,43.5h27.7c5.1-4.5,11.6-7.4,18.8-7.4h59c7.2,0,13.7,2.8,18.8,7.4h12.9L128,99.1L128,99.1z"/></g></g>
</svg>